# xmcd
#
# Track frame offsets:
#	225
#	13952
#	26386
#	40018
#	54242
#	67108
#	80412
#	94577
#	108146
#	120656
#	131228
#	143465
#	156141
#	169494
#	183888
#
# Disc length: 2618
#
# Revision: 2
# Processed by: cddbd v1.5.1PL0 Copyright (c) Steve Scherf et al.
# Submitted via: CDex 1.50Beta7
# Normalized: r1:TRMNUM
#
DISCID=bf0a370f
DTITLE=John Lee Hooker - Hobo Blues
DYEAR=1900
DGENRE=Blues
TTITLE0=Hobo Blues
TTITLE1=War Is Over(Goodbye California)
TTITLE2=Crawling King Snake
TTITLE3=Boogie Chillen
TTITLE4=Bumblee Bee Blues
TTITLE5=Hoogie Boogie
TTITLE6=Sally Mae
TTITLE7=Drifting From Door To Door
TTITLE8=Miss Sadie Mae
TTITLE9=Hastings Street Boogie
TTITLE10=Burnin Hell
TTITLE11=Sailing Blues
TTITLE12=Momma Poppa Boogie
TTITLE13=Henry's Swing Club
TTITLE14=Weeping Willow Boogie
EXTD=
EXTT0=
EXTT1=
EXTT2=
EXTT3=
EXTT4=
EXTT5=
EXTT6=
EXTT7=
EXTT8=
EXTT9=
EXTT10=
EXTT11=
EXTT12=
EXTT13=
EXTT14=
PLAYORDER=
